<svg xmlns="http://www.w3.org/2000/svg" viewBox="0 0 144 332" style="fill: #fff">
  <defs/>
  <path d="M116 143a12 12 0 00-2-2 21 21 0 01-2-2l1 2 1 1a12 12 0 014 11v1l1 3v-8a11 11 0 00-3-6zM122 166l1 3a65 65 0 002-8l2-8c2 4 2 8 0 12l-3 7v1l1 1 2 6 1-2-1 3 2 8a41 41 0 007-11l-2-8c-1 5-3 9-6 13l5-16-6-17a25 25 0 01-1 5 96 96 0 01-4 11zM61 142l-3 8-1 2c0-4-1-9 2-13l4-2a12 12 0 012-1 9 9 0 00-9 7l-1 6a10 10 0 002 8 53 53 0 006 6 23 23 0 018 13 23 23 0 003 8 11 11 0 001 1v-2a13 13 0 01-3-6 22 22 0 00-6-13 58 58 0 01-5-6 8 8 0 01-2-7l1-5a8 8 0 017-7 21 21 0 007-3v-1a22 22 0 01-7 2 7 7 0 00-6 5z" class="a"/>
  <path d="M21 192c6 3 11 7 18 8l16 4 12 2a56 56 0 0010 2v-2l-1-8-7-5v-1l7 5v-2a15 15 0 01-1-2h1v-2a20 20 0 01-7-10l-2-6-2-6a21 21 0 014 10 15 15 0 006 10v-2a13 13 0 01-4-8c-1-6-4-11-8-15l-7-7a9 9 0 01-2-7 66 66 0 00-1-8v10c0 4 3 6 5 9-3-2-6-4-7-9 0-3 0-7 2-9 2-4 4-7 8-8a14 14 0 014 0c3 1 6 0 9-2h1v-2a25 25 0 01-14 4l11-5-14 5c-5 2-8 7-8 13v3c-2-3-1-10 2-12a28 28 0 0112-9 48 48 0 018-2 18 18 0 005-1l1-2a66 66 0 01-10 3l-9 4h-2a32 32 0 015-4l11-4 8-3a17 17 0 018-5l4-1-1 1a10 10 0 012 0 9 9 0 016-3c4-1 5 3 7 5-2-4-3-7-9-6 3-2 7-2 9 1a15 15 0 012 4l6 15a9 9 0 001 3c5 6 6 13 5 20l-1 1v-6c0-5-1-8-4-12a67 67 0 01-5-8 15 15 0 004 8c5 6 5 13 4 20l2 4 1-4a40 40 0 001-17l-13-31a10 10 0 00-8-3 16 16 0 00-5 1 42 42 0 00-5 3c1-4 6-5 16-5-6-3-15 0-19 5a10 10 0 01-7 4c-9 1-17 4-24 9a5 5 0 01-1 0l3-5 9-15a32 32 0 0111-10c7-3 14-2 21 1a46 46 0 015 4l-1-4a23 23 0 00-14-6c-4 0-9-1-13 1a15 15 0 00-4 1c6-2 12-1 18 0h-5c-6 1-11 4-16 8a18 18 0 01-2 2c-6 4-10 10-12 17a40 40 0 01-8 13l-1 1h-1l3-6a310 310 0 0116-26c6-11 16-15 28-15a18 18 0 018 2v-2l-8-3h7v-3a23 23 0 00-7 0 11 11 0 00-5 1c-4 2-8 2-12 2H56a10 10 0 01-3 0l2-1a81 81 0 0121-8l17-5a18 18 0 017-2l1-1-11 2a60 60 0 01-15 5l-17 5-1 1c2-3 5-6 9-7a158 158 0 0024-7l5-2a9 9 0 016 0v-2c2-9 6-18 12-27a183 183 0 0118-21 27 27 0 004-6 4 4 0 00-1-5 4 4 0 00-5-1 33 33 0 00-5 4 81 81 0 01-16 9c-9 4-18 6-27 7a45 45 0 00-20 7c-9 6-15 14-18 25s-2 20-2 31v7l2-1-1 2-1 2v3l2-5c3-5 7-8 12-8l13 1a45 45 0 014 0c-12 8-24 17-31 30a66 66 0 01-5 17l-2 6 2 16h-1c-2-5-3-10-2-16l-5 11a36 36 0 003 11 17 17 0 01-4-10l-1 2 1 4a7 7 0 001 2l6 12 6 9 2 3-11-11c-2-1-2-4-3-7a15 15 0 00-1-2 16 16 0 01-3-7l-1 2 3 8 2 3a38 38 0 01-7-8v3a43 43 0 005 6 10 10 0 014 7l-4-3-8-7-1 2 7 5c5 3 8 7 12 12a14 14 0 004 2l6 4a15 15 0 01-3 0 92 92 0 01-27-20l-1 1 4 5c6 6 14 9 21 14a21 21 0 01-11 0 80 80 0 01-11-5 15 15 0 01-6-6l-1 2a28 28 0 0010 11zm86-82l4 4c4 8 9 17 11 27l1 7-3-10a3 3 0 00-1-1c-3-4-4-9-6-13l-3-8a15 15 0 00-5-7 5 5 0 012 1zm-63 91c6 0 13 0 19 3zm25-6l-1 1-4-3 1-1zm5-2c-11-6-20-14-26-25a37 37 0 004 4l13 11 9 10zm-11 1c-6-3-15-11-16-16l16 16zm-13-16h1l5 4-1 1zm3-19l10 11a14 14 0 012 5c-2-5-6-9-10-12l-6-7a15 15 0 01-1-15v8a15 15 0 005 10zm-3-25a13 13 0 004-4l7-6c7-4 17-7 24-6a16 16 0 01-3 1l-13 4a31 31 0 00-13 8 59 59 0 01-5 5 17 17 0 00-6 9c0-4 1-8 5-11zm4-31c3-6 8-9 13-12l3-2h1a149 149 0 00-15 22l-13 23 2-10a79 79 0 019-21zm-23 48l-1-6h1v6zm6 14l-5-12h1l4 12zm3-23c-3-7 3-29 9-34-2 6-5 11-6 17l-3 17zm-9 30l14 13c-8-1-12-5-14-13zm17-15c1 4 5 6 8 9 4 3 8 7 9 12l-9-10a62 62 0 00-6-5 15 15 0 01-5-13c1 3 1 5 3 7zm-2 7l1-1 3 4v-1c5 4 10 8 13 13a36 36 0 01-12-11l-1 1-4-5zm-20 28c4 2 7 2 11 2l15 1a24 24 0 0112 3l10 6v1l-10-3-8-2a104 104 0 00-12-1c-8-1-16-4-23-8l-1-1 6 2z" class="a"/>
  <path d="M143 216a214 214 0 00-5-33 30 30 0 01-9 8l3 13a161 161 0 012 40 123 123 0 01-6 30c-4 11-10 21-18 30-9 10-19 16-32 18a48 48 0 01-23-3c-17-6-28-18-36-33a89 89 0 01-8-26v-1l4 5 11 14a36 36 0 0015 11q14 5 25-4c6-6 9-14 11-22a137 137 0 002-33l-2-21a99 99 0 01-23-2l-10-3c-5-2-10-2-15-2a73 73 0 01-10-1c-5 0-9-4-11-8a3 3 0 01-1-1 184 184 0 00-7 48 130 130 0 002 25 92 92 0 0011 30c8 14 20 25 35 32a57 57 0 0030 5 58 58 0 0028-12c12-8 20-20 27-33 6-14 10-29 11-45a163 163 0 00-1-26zM104 119a7 7 0 00-9-3 11 11 0 011 1 7 7 0 014 0c3 1 4 4 4 7l2 2v-2a17 17 0 00-2-5z" class="a"/>
  <path d="M75 179v4a11 11 0 009 4 20 20 0 004-1l11-7 3-2a8 8 0 003-6 15 15 0 014-10c3-4 2-8-1-12a51 51 0 00-5-4 13 13 0 01-4-10 52 52 0 00-1-7c0-2-2-4-4-3a16 16 0 00-7 2 104 104 0 00-8 6 37 37 0 01-5 4v3a246 246 0 001 39zM110 109a17 17 0 014 6 28 28 0 002 3c3 8 6 15 7 22l3 6 1 4a13 13 0 000-4c-1-8-3-17-6-25-1-6-4-12-10-15h2a71 71 0 00-6-7l-1-1 3 9 1 2zM94 192c4-1 9-2 12-6a133 133 0 0013-14 29 29 0 003-6l-1-4-7 11c-6 7-12 14-20 19zM101 78v1a27 27 0 0110 5c7 6 12 14 16 22 3 5 4 11 5 17l3 11h1v-2l1-12c1-7 0-14-4-20l-17-22a60 60 0 00-7-8 14 14 0 00-9-4 60 60 0 001 12zM40 90l-14 3c-4 0-8 0-12 2a5 5 0 00-2 2c-2 5-4 11-2 16 2 6 4 11 8 15 3 3 6 6 7 10a55 55 0 001-6v-14a12 12 0 015-10 26 26 0 008-10l2-5v-3a7 7 0 01-1 0zM41 96l-2 4a42 42 0 00-2 22 59 59 0 014-8v-4-14zM16 147l-4-12c3 6 5 11 6 17a38 38 0 004 7l1-3a25 25 0 010-13c1-3 0-7-3-8a19 19 0 01-7-8l-3-5v7l1 24a14 14 0 006 11l1 1 3-5c-3-4-4-9-5-13z" class="a"/>
  <path d="M105 95l11 11 11 12-1-3c-3-6-6-12-10-16l-9-8a19 19 0 00-5-4l3 8zM95 208a37 37 0 0015-4h-1l-6 2-13 1a120 120 0 01-13 1v1h1l17-1zM11 181l-1-1a26 26 0 00-2-3 2 2 0 000 1l-1 12a7 7 0 000 2l2-7 2-4zM110 204zM87 189a40 40 0 006-4 22 22 0 00-4 2c-5 3-10 2-14-2v2a20 20 0 007 3 7 7 0 005-1zM81 130a53 53 0 019-6c5-3 10-1 11 5a61 61 0 010 8 10 10 0 004 7l4 4c4 4 5 10 1 15a10 10 0 00-3 6 10 10 0 01-4 9 4 4 0 00-1 1 10 10 0 005-7 29 29 0 015-11 10 10 0 002-7 16 16 0 00-5-11c-5-4-7-9-6-15a8 8 0 000-1c-1-6-6-9-10-6l-9 6-9 6-1 2a33 33 0 007-5zM102 65a19 19 0 0111 7l21 26c5 7 6 14 4 22a56 56 0 00-2 5c3-4 5-9 4-15-2-10-7-17-13-25l-13-13-8-8a12 12 0 00-5-2l-1 3a13 13 0 012 0zM2 157l9 20 1 2 3-8-13-14zM119 159a3 3 0 000-1v-1 2zM94 116l-1 1a5 5 0 001-1zM106 126a25 25 0 006 13l-3-6a60 60 0 00-3-7zM125 193h1l1-1 2-1v-2l-4 4zM138 183a30 30 0 004-8c2-7 3-13 0-20l-4-10c3 12 3 23-2 33l1 5h1zM6 156l-2-2H3l6 8a86 86 0 007 8l1-3a56 56 0 01-11-11z" class="a"/>
  <path d="M104 86c6 3 10 7 14 12 5 6 9 12 11 19a5 5 0 001 1h1l-3-8a113 113 0 00-7-13c-4-7-11-13-20-15l1 3 2 1zM8 155a14 14 0 002 2 9 9 0 000-1l-1-13v-21a51 51 0 00-1-7H7v4l-3 18a14 14 0 001 10l3 8zM84 124l-7 3a30 30 0 00-2 4 43 43 0 009-7zM25 145a2 2 0 000 1 30 30 0 00-1 8l2-3-1-6zM106 190a35 35 0 0011-8 48 48 0 007-10l-1-3a26 26 0 01-5 8l-12 13zM92 116a13 13 0 00-2 0h-1a13 13 0 00-3 2 30 30 0 01-5 3 20 20 0 00-3 4 55 55 0 0013-8zM128 130c-1-5-4-9-7-13l7 21 4 23v-11l-4-20zM106 129a5 5 0 00-1-1 21 21 0 005 13l6 8c2 5 1 11-2 17l-2 6v1a11 11 0 001-2c1-2 3-4 3-7a21 21 0 002-5v-5l-5-13c-3-3-6-7-7-12zM93 191a44 44 0 0012-8c-4 1-7 2-9 4a25 25 0 00-4 2c-3 2-6 6-10 5h6l5-3zM96 117a10 10 0 00-6 3c8-2 11-1 14 5a8 8 0 000-1 25 25 0 00-3-4 16 16 0 00-5-3zM32 126l2-18c-4 3-4 11-2 18zM83 192h-1a20 20 0 01-7-3l1 2a7 7 0 007 1zM134 165l-1 2 1 3a19 19 0 000-5z" class="a"/>
  <path d="M5 152c-2-5-4-10-2-16-5 4-3 11 2 16zM109 197c-7 2-14 6-23 2 3 3 6 4 9 3l6-1a17 17 0 008-4zM89 203l-13-10v2c3 4 8 6 13 8zM110 173l4-11a16 16 0 002-9c0 5-2 8-4 11a16 16 0 00-2 4l-2 9 2-4zM34 136l-1 1h1zM107 192c8-2 14-10 18-18-4 7-10 14-18 18zM28 142a28 28 0 00-1 7l1-1a38 38 0 010-6zM112 200l-16 4c6 1 11-1 16-4zM127 181v-1l-7 11a24 24 0 007-10z" class="a"/>
  <path d="M101 198v-1l-11 1a19 19 0 0011 0zM20 133l-5-7c1 4 3 6 5 7zM76 197v1h1zM136 148l1 7h1l-2-7zM107 195h1l4-2z" class="a"/>
</svg>
