<svg xmlns="http://www.w3.org/2000/svg" viewBox="0 0 144 331.89">
    <defs>
        <style>.a{fill:#fff;}</style>
    </defs>
    <title>PenguinTux</title>
    <path class="a" d="M115.72,142.69a12,12,0,0,0-1.49-1.61,21.27,21.27,0,0,1-2.31-2.23l1,2.39.92.9a12.34,12.34,0,0,1,4,10.74c0,.24,0,.48,0,.72l1.11,3c-.14-2.55-.26-5-.42-7.44A10.88,10.88,0,0,0,115.72,142.69Z"/>
    <path class="a" d="M122.24,166.25c.27.82.55,1.64.82,2.47a65,65,0,0,0,2.38-7.75c.64-2.51,1.35-5,2-7.51,1.1,3.83,1.44,7.68-.13,11.41-1,2.38-2.08,4.72-3.28,7,.16.49.32,1,.47,1.47,0,.08,0,.17.08.26.3-.61.6-1.23.89-1.85-.25.7-.52,1.41-.81,2.12q1,3.18,1.87,6.37c.47-.81,1-1.61,1.43-2.43-.34,1.18-.73,2.32-1.15,3.43.7,2.55,1.35,5.1,2,7.67a41,41,0,0,0,7.41-11.11c-.7-2.63-1.45-5.25-2.23-7.86-.92,4.59-3.35,8.65-6,12.62l5.16-15.49q-2.69-8.67-6-17.16a25.36,25.36,0,0,1-1.06,5A95.71,95.71,0,0,1,122.24,166.25Z"/>
    <path class="a" d="M60.68,142c-1.07,2.53-2,5.13-2.9,7.71-.33.9-.54,1.84-.8,2.77-.44-4.56-.81-9.14,2-13,.86-1.17,2.53-1.77,3.89-2.52a12.07,12.07,0,0,1,2.29-.69,8.94,8.94,0,0,0-9.49,7c-.39,1.92-.63,3.87-.86,5.81a9.86,9.86,0,0,0,2.49,8A52.84,52.84,0,0,0,63,162.73,22.51,22.51,0,0,1,71,176.11a22.52,22.52,0,0,0,2.72,7.52,11.22,11.22,0,0,0,1.37,1.73l-.21-2.31a13.06,13.06,0,0,1-2.42-6,22.34,22.34,0,0,0-6.69-13.34,57.65,57.65,0,0,1-4.73-5.37,8.17,8.17,0,0,1-1.85-7.68c.45-1.65.8-3.32,1.19-5a8.3,8.3,0,0,1,7-6.72,21.46,21.46,0,0,0,6.77-2.49q.09-.69.21-1.38a21.7,21.7,0,0,1-7.59,2.39A7.15,7.15,0,0,0,60.68,142Z"/>
    <path class="a" d="M20.93,191.63c5.63,3.46,11.13,7.22,17.64,8.79,5.28,1.27,10.67,2,16,3.15,4,.85,7.94,2,11.93,2.91a55.75,55.75,0,0,0,10.8,1.21c-.06-.71-.11-1.42-.17-2.13-.21-2.52-.45-5-.7-7.55l-.07.1-7.78-5.44.32-.46,7.47,5.23c-.09-.94-.18-1.88-.28-2.82a15.45,15.45,0,0,1-.93-1.4l.31-.45.47.35c-.09-.86-.17-1.72-.26-2.58a19.65,19.65,0,0,1-6.74-9.65c-.65-2-1-4.18-1.68-6.18s-1.78-3.82-2.69-5.73a20.85,20.85,0,0,1,4.93,10.18,14.74,14.74,0,0,0,6,9.54c-.07-.72-.15-1.43-.22-2.14a13,13,0,0,1-4.6-8c-1-5.7-4.06-10.28-7.92-14.42-2.25-2.42-4.42-4.91-6.63-7.37a8.9,8.9,0,0,1-2.39-6.35,66,66,0,0,0-.24-8.06c-.12,3.33-.39,6.65-.34,10,0,3.71,2.73,6.14,4.67,8.94-2.76-2.64-6.17-4.78-6.52-9.19-.26-3.31-.05-6.62,1.71-9.43,2-3.18,3.71-6.91,8.23-7.32a14,14,0,0,1,3.65-.05c3.48.61,6.59-.64,9.44-2.18l.52-.31c.14-.59.29-1.18.46-1.77a24.52,24.52,0,0,1-14,3.79L72.23,130l-.17-.39c-4.74,1.73-9.67,3.08-14.18,5.29-5.11,2.5-7.43,7.22-7.84,12.84-.06.9,0,1.8,0,3-1.81-3.19-.9-9.27,1.71-12.18a28.33,28.33,0,0,1,12.65-8.12,47.94,47.94,0,0,1,8.09-2.31,18.14,18.14,0,0,0,4.34-1.22c.33-.71.68-1.42,1.08-2.1,0-.06.07-.11.1-.16a65.94,65.94,0,0,1-10.44,3.49c-3,.74-5.83,2.4-8.73,3.63l-1.13.47-.28-.41a31.9,31.9,0,0,1,4.69-3.42c3.5-1.7,7.14-3.13,10.76-4.58,2.75-1.11,5.57-2,8.28-3.25a16.66,16.66,0,0,1,8.22-4.4c1.18-.45,2.41-.82,3.57-1.3l.16.17c-.33.26-.65.53-1,.8a9.83,9.83,0,0,1,1.55.12,9.09,9.09,0,0,1,6.79-3.43c3.57-.18,4.52,3,6.37,5.1-1.68-3.19-3-6.77-8.32-5.89,2.75-1.72,6.33-1.29,8.14.78a14.6,14.6,0,0,1,2.69,4.11c2,5.16,3.84,10.41,5.76,15.62a9.39,9.39,0,0,0,1.15,2.28c4.63,6.22,5.65,13.23,4.59,20.71,0,.08-.17.14-.53.43,0-2,0-3.77,0-5.55.15-4.71-1.62-8.6-4.53-12.25a66.71,66.71,0,0,1-4.6-7.43,14.64,14.64,0,0,0,3.73,7.57c5.36,5.82,5.12,12.79,4.42,19.9h0c.5,1.38,1,2.77,1.47,4.16.42-1.19.81-2.39,1.19-3.6a40.18,40.18,0,0,0,1.46-17.65c-4.31-10.47-8.79-20.86-13.19-31.29a10.42,10.42,0,0,0-8.35-3,16,16,0,0,0-5.32,1.61A41.62,41.62,0,0,0,91.93,111c1.2-3.52,6.13-5,16.56-5.33-6.11-2.26-15.18.25-19,5.31a10.3,10.3,0,0,1-7.66,4.21c-8.85.67-16.67,4.09-24.11,8.65a5.46,5.46,0,0,1-.91.31c1-1.9,1.89-3.55,2.84-5.14,2.94-4.93,5.57-10.1,9-14.68a32.08,32.08,0,0,1,11.6-10c7-3.36,13.92-2.65,20.56,1.1A45.93,45.93,0,0,1,106,98.75c-.47-1.27-.92-2.56-1.35-3.85a23.38,23.38,0,0,0-13.35-5.46c-4.45-.43-8.91-1-13.33.17a15,15,0,0,0-3.52,1.51c5.87-2.21,11.67-1.45,17.48.2-1.59,0-3.19-.11-4.77,0-6.27.54-11.36,3.51-15.76,7.83a18.37,18.37,0,0,1-2.14,2c-6,4.34-9.9,10.23-12.43,17.1a39.63,39.63,0,0,1-7.56,12.47c-.44.51-.93,1-1.41,1.45-.13.12-.3.18-.81.1.93-2,1.79-4,2.79-5.95A309.62,309.62,0,0,1,65.59,99.68c6.78-10.51,16.36-15,28.52-14.55a18.36,18.36,0,0,1,8.31,2.24c-.21-.84-.41-1.68-.59-2.52-2.54-1-5.24-1.79-8-2.77,1.72-.15,3.52-.7,5.16-.39.77.15,1.53.34,2.27.53-.17-1-.31-2-.44-2.94a22.8,22.8,0,0,0-6.9-.53A11.1,11.1,0,0,0,89,79.85c-3.94,2.47-8.21,2-12.45,2-6.73.06-13.45.16-20.18.26a10.1,10.1,0,0,1-3.19-.21c.64-.38,1.27-.79,1.94-1.14a80.77,80.77,0,0,1,20.61-7.51C81.62,72,87.32,69.76,93,67.61a17.54,17.54,0,0,1,7.45-1.27c0-.43.06-.86.11-1.29-3.56-.26-6.9.9-10.11,2.29a60.28,60.28,0,0,1-15.64,4.47c-5.94.86-11.45,3-16.89,5.47-.43.2-.87.38-1.31.57,2.49-3,5.37-5.49,9.35-6.37a158.2,158.2,0,0,0,24-7.74c1.76-.7,3.69-1,5.44-1.64a9.26,9.26,0,0,1,5.6-.51c.06-.37.12-.74.19-1.11,2-9.86,6.27-18.71,11.83-27a182.56,182.56,0,0,1,17.71-21.63,26.62,26.62,0,0,0,3.85-5.73A4,4,0,0,0,134,1.24a4,4,0,0,0-4.74-.79,33.11,33.11,0,0,0-5.6,3.36,81,81,0,0,1-15.81,9.3c-8.67,3.82-17.85,5.55-27.2,6.62a45.16,45.16,0,0,0-20,7c-9.1,6-14.4,14.6-17.21,24.92S40.67,72.48,40.92,83c.06,2.3.1,4.61.14,6.91.61-.24,1.25-.53,2-.82-.38.84-.57,1.32-.8,1.77-.39.77-.78,1.53-1.18,2.29,0,.9,0,1.79,0,2.69.72-1.57,1.47-3.12,2.27-4.64,2.55-4.86,6.34-8.09,12.14-8,4,.06,8.07.32,12.1.59a44.8,44.8,0,0,1,4.46.7c-12.49,8-23.89,16.9-31.38,29.56a65.92,65.92,0,0,1-4.36,16.57c-.82,2.1-1.73,4.16-2.69,6.19l2.07,15.72-.6.08c-2.39-4.87-2.65-10-1.7-15.3-1.68,3.52-3.53,6.95-5.46,10.35a35.63,35.63,0,0,0,2.89,11.83,17.39,17.39,0,0,1-3.61-10.56l-1.05,1.83c.24,1.26.47,2.51.74,3.76a7.14,7.14,0,0,0,1.23,2.65c2.74,3.66,4.28,7.91,6.2,12,1.42,3,3.51,5.69,5.34,8.5.69,1.06,1.48,2.05,2.25,3.11-.22.09-.37.18-.4.15-3.52-3.47-7.26-6.76-10.45-10.51-1.59-1.87-2.17-4.6-3.23-6.93a15.15,15.15,0,0,0-1.11-2.11,16.39,16.39,0,0,1-2.56-7.21c-.26.46-.53.92-.8,1.37l-.51.88c.74,2.56,2.24,4.92,3.42,7.35.48,1,1.11,1.88,1.67,2.82l-.37.28a37.77,37.77,0,0,1-6.11-8.05l-.89,1.57c.24.38.47.76.73,1.13a42.59,42.59,0,0,0,5.12,6.21,10.09,10.09,0,0,1,3.15,7.21c-1.2-1.08-2.2-2-3.25-2.93-2.76-2.34-5.47-4.74-8.3-7-.34.64-.68,1.27-1,1.91,2.25,1.69,4.58,3.29,6.91,4.88,4.79,3.24,8.4,7.6,12.14,11.88a14.27,14.27,0,0,0,3.77,2.69c2.08,1.19,4.26,2.21,6.41,3.31l-.27.74a15.35,15.35,0,0,1-2.76-.75,92.24,92.24,0,0,1-27.69-19.84c-.21.42-.41.84-.61,1.26,1.36,1.54,2.72,3.07,4.07,4.62,5.7,6.54,13.66,9.64,20.93,13.88a21.19,21.19,0,0,1-10.87,0,80.39,80.39,0,0,1-10.58-4.11,15.44,15.44,0,0,1-6.94-6.78c-.33.81-.67,1.62-1,2.45A28.25,28.25,0,0,0,20.93,191.63ZM107,110.07c1.32,1.17,2.89,2.26,3.72,3.74,4.74,8.48,9.35,17.05,11.23,26.74.48,2.47.66,5,1,7.5h-.35c-.93-3.4-1.84-6.8-2.78-10.2a2.75,2.75,0,0,0-.53-1.16c-3.49-3.51-4.18-8.3-5.85-12.64-1.06-2.73-2.18-5.44-3.28-8.15a15.32,15.32,0,0,0-4.89-6.45A5.4,5.4,0,0,1,107,110.07ZM43.81,201.13c6.45.08,13,.09,19.12,2.6Zm24.89-5.66-.36.46-3.89-3.11.37-.48Zm5-2.55c-10.81-6.21-19.76-13.6-25.35-24.77a37.23,37.23,0,0,0,3.24,3.56c4.45,3.82,8.92,7.61,13.49,11.28C68.47,185.7,70.87,189.17,73.73,192.92ZM63,194.1a1.28,1.28,0,0,1-.12.24c-6.18-3.11-14.62-11.38-16.32-16Q54.75,186.21,63,194.1ZM50.06,178.37l.44-.52,5.38,4.4-.56.63ZM52.8,159c3.56,3.77,7.08,7.58,10.48,11.49a13.75,13.75,0,0,1,2.13,4.18c-2.61-4.8-6.79-8.19-10.46-12-2.14-2.25-4.67-4.28-6.24-6.88a15.3,15.3,0,0,1-.85-14.4,2.5,2.5,0,0,1,.48-.65c0,2.76-.08,5.54,0,8.32A15,15,0,0,0,52.8,159Zm-2.71-25.1a13.47,13.47,0,0,0,3.67-3.51c2-2.77,4.83-4.27,7.57-6,6.82-4.24,16.53-7.2,23.62-6.83A16,16,0,0,1,82.41,119c-4.32,1.54-8.64,3.08-13,4.46a31.12,31.12,0,0,0-13.59,8,58.57,58.57,0,0,1-5.14,4.69,16.63,16.63,0,0,0-6.07,9.28C45.2,141.05,45.74,136.65,50.09,133.91Zm3.7-31.21c3.19-5.46,7.84-9.14,13.34-11.93,1-.5,2-1,3-1.46.08,0,.22,0,.43.07a149,149,0,0,0-14.89,21.44c-4.38,7.46-8.2,15.25-12.32,23,.64-3.25,1.18-6.62,2-9.92A79,79,0,0,1,53.79,102.7ZM30.6,151.45c-.21-2-.42-4-.62-6l.69-.11c.23,2,.45,4.05.68,6.08Zm6.3,13.28c-1.06-4.09-4.06-7.45-4.4-11.81l.49-.16,4.38,11.79Zm2.75-22.48c-2.43-7.26,3.07-29.67,9.3-34-2.24,5.79-4.82,11.18-6.36,16.86S40.56,136.69,39.65,142.25Zm-9,30,14,13.1C37.27,184,32.64,179.56,30.66,172.25Zm16.91-14.94c1.84,3.67,5.32,5.84,8.28,8.46,3.9,3.45,7.83,6.87,9.55,12.48-3.33-3.63-6.35-7.07-9.54-10.35a61.81,61.81,0,0,0-5.63-5,14.64,14.64,0,0,1-5.57-12.67C45.57,152.5,46.41,155,47.57,157.31ZM46.13,164l.73-.69,3.47,4.09L50,166.33c5.15,3.72,9.84,7.32,13,12.53A36.27,36.27,0,0,1,50.78,168.3c-.19.13-.52.4-.53.38C48.86,167.13,47.49,165.56,46.13,164ZM26.41,191.78c3.39,1.72,7,2.06,10.67,2.24,4.89.25,9.78.36,14.67.5a23.51,23.51,0,0,1,12,3.47c3.41,2.12,6.8,4.26,10.2,6.4-.07.18-.13.36-.2.55C70.36,204,67,203,63.59,202c-2.63-.79-5.18-2-7.86-2.42a104.12,104.12,0,0,0-11.85-1.07c-8.3-.41-15.62-3.69-22.77-7.53-.14-.07-.2-.27-.64-.9C22.76,190.72,24.74,190.94,26.41,191.78Z"/>
    <path class="a" d="M143.24,215.8a214.15,214.15,0,0,0-5.57-32.42,29.94,29.94,0,0,1-8.38,7.59c1,4.3,1.85,8.62,2.58,13a161.19,161.19,0,0,1,1.78,40.21,123.11,123.11,0,0,1-6.05,29.38c-3.89,11.4-9.36,21.9-17.63,30.76-8.79,9.41-19.39,15.65-32.32,17.36a48.09,48.09,0,0,1-22.88-2.74C38.32,313,27,301.39,19.31,286a88.73,88.73,0,0,1-8.09-25.58c0-.22-.07-.44-.08-.65s0-.15.21-.52c1.32,1.74,2.56,3.34,3.77,5,3.47,4.63,6.73,9.42,10.42,13.85a36,36,0,0,0,15.64,11.37q13.64,4.81,24.41-4.84c6.54-5.86,9.67-13.53,11.27-21.91a137.38,137.38,0,0,0,1.91-32.46c-.34-7.06-.82-14.11-1.38-21.16a98.63,98.63,0,0,1-23.68-2.32c-3.2-.66-6.25-2.08-9.4-3.06-5.14-1.59-10.45-1.84-15.79-1.87a73.3,73.3,0,0,1-9.15-.39c-5.39-.7-9-4.19-11.75-8.53a3.33,3.33,0,0,1-.45-1.33A184.35,184.35,0,0,0,0,240.3a130,130,0,0,0,2.18,24.44,92.36,92.36,0,0,0,10.75,30C21.28,309,32.84,319.88,48,326.62a56.93,56.93,0,0,0,30.35,4.88,57.61,57.61,0,0,0,27.68-11.22c11.74-8.63,20.22-19.93,26.48-32.95,6.86-14.3,10-29.56,11.11-45.27A163.35,163.35,0,0,0,143.24,215.8Z"/>
    <path class="a" d="M104.35,119.22a7.06,7.06,0,0,0-9.83-3.13l0,0a10.72,10.72,0,0,1,1.56.46,7.42,7.42,0,0,1,4.3.35c2.27,1,3.87,3.64,4.08,6.67.65.89,1.24,1.81,1.8,2.76-.14-.68-.26-1.38-.36-2.08A17,17,0,0,0,104.35,119.22Z"/>
    <path class="a" d="M74.57,179.41c.11,1.21.23,2.43.35,3.64a11.09,11.09,0,0,0,8.6,4.39A20.37,20.37,0,0,0,87.61,186c3.71-2.21,7.3-4.6,10.93-6.92,1.08-.69,2.21-1.33,3.23-2.1a7.71,7.71,0,0,0,3.37-6.05,15,15,0,0,1,3.66-9.73c3.44-4.11,2.7-7.91-1-11.91a50.87,50.87,0,0,0-4.36-3.93,12.84,12.84,0,0,1-4.49-10,51.63,51.63,0,0,0-.67-6.92c-.39-2.47-2.11-4.1-4.57-3.75a16.2,16.2,0,0,0-6.25,2.25,103.77,103.77,0,0,0-8.66,6.48,37.26,37.26,0,0,1-4.61,3.11c-.15,1.11-.27,2.24-.36,3.37A246.17,246.17,0,0,0,74.57,179.41Z"/>
    <path class="a" d="M110.28,109.15a17,17,0,0,1,3.66,5.94,27.65,27.65,0,0,0,1.6,3.34c3.95,7.19,6.91,14.48,7.93,22,.81,2,1.63,3.95,2.43,5.93.43,1,.83,2.1,1.24,3.16a12.53,12.53,0,0,0-.09-3.47c-1.54-8.54-3.29-17.07-5.67-25.41-1.68-5.88-4.62-11.36-10.29-14.7h2a71.23,71.23,0,0,0-5.78-6.47c-.43-.38-.89-.75-1.35-1.1,1.05,2.86,2.18,5.7,3.37,8.52C109.64,107.65,110,108.4,110.28,109.15Z"/>
    <path class="a" d="M93.57,192.47c4.78-1,9.34-2.85,12.8-6.23a133.37,133.37,0,0,0,12.5-14.16,28.78,28.78,0,0,0,3.37-5.83c-.47-1.4-.94-2.79-1.42-4.18-1.48,4.19-3.36,8.19-6.58,11.41C107.63,180.06,101.67,187.39,93.57,192.47Z"/>
    <path class="a" d="M100.71,78.29c0,.33.1.66.15,1a27,27,0,0,1,10,4.87c7.51,5.63,12,13.6,16.39,21.6,2.89,5.27,3.87,11.18,5.07,17,.78,3.74,1.74,7.43,2.61,11.14l.64-.11c0-.6.07-1.2.12-1.8.34-4,.32-8.12,1.12-12,1.51-7.41.41-14.15-4.06-20.23-5.43-7.4-10.88-14.78-16.54-22A60.35,60.35,0,0,0,108.71,70a13.66,13.66,0,0,0-8.3-3.66A59.74,59.74,0,0,0,100.71,78.29Z"/>
    <path class="a" d="M39.52,90.42c-4.5.82-9,1.67-13.53,2.25-4,.5-8.11.32-11.82,2.18a4.57,4.57,0,0,0-2.36,2.32c-1.33,5.32-3.43,10.47-1.67,16.26,1.63,5.33,3.83,10.31,7.65,14.22,3,3.11,5.94,6,6.83,10.45a3.11,3.11,0,0,0,.54.2,55.33,55.33,0,0,0,.94-6.61c.12-4.7,0-9.42,0-14.12A11.5,11.5,0,0,1,30.71,108a26.45,26.45,0,0,0,7.82-9.77c.84-1.7,1.71-3.38,2.57-5.07,0-1.08,0-2.16,0-3.24A7.41,7.41,0,0,1,39.52,90.42Z"/>
    <path class="a" d="M41.14,95.86q-1,2.16-1.87,4.35a42.31,42.31,0,0,0-2.41,21.53,59.43,59.43,0,0,1,3.87-7.69c.17-1.48.29-3,.33-4.49Q41.21,102.7,41.14,95.86Z"/>
    <path class="a" d="M15.53,146.55c-1.17-3.77-2.09-7.63-3.12-11.44,2.26,5.42,4.22,10.93,6,16.49a37.53,37.53,0,0,0,3.14,7.21l1.39-2.4c0-.13-.09-.27-.12-.4a25.29,25.29,0,0,1,.52-12.71c.91-3.48-.29-7.09-3.16-8.66a18.7,18.7,0,0,1-7.67-8.13c-.75-1.45-1.67-2.81-2.54-4.27,0,2.37,0,4.54,0,6.71.22,7.89.4,15.78.74,23.67a14.43,14.43,0,0,0,6,11.26l1.4,1.12q1.25-2.33,2.55-4.62C18,156.15,17,151.25,15.53,146.55Z"/>
    <path class="a" d="M104.91,95.15c3.72,3.35,7.24,6.93,10.67,10.57,3.85,4.08,7.52,8.34,11.26,12.53l.36-.21c-.47-1-.91-2-1.41-2.91-3-5.69-5.44-11.69-10.18-16.25-2.9-2.79-6-5.35-8.87-8.22a19,19,0,0,0-4.32-3.29c.62,2.54,1.36,5,2.19,7.53Z"/>
    <path class="a" d="M95.38,208.28A37.09,37.09,0,0,0,109.93,204c-.25-.14-.53-.42-.71-.37-2.15.71-4.22,1.77-6.41,2.14-4.09.67-8.25,1-12.39,1.37a120.43,120.43,0,0,1-13.14.56c0,.45.07.91.11,1.36h.38C83.64,208.79,89.53,208.77,95.38,208.28Z"/>
    <path class="a" d="M10.61,181.1c-.25-.46-.5-.92-.73-1.4a26.22,26.22,0,0,0-1.52-2.54A1.61,1.61,0,0,0,8,178.21c-.29,4-.63,8-.85,12a7,7,0,0,0,0,1.29c.63-2.17,1.31-4.33,2-6.49C9.64,183.73,10.11,182.41,10.61,181.1Z"/>
    <path class="a" d="M110,203.94l-.09.05,0,0Z"/>
    <path class="a" d="M87.07,189.42a39.5,39.5,0,0,0,5.61-3.95A22.09,22.09,0,0,0,89.24,187c-4.83,2.62-10.57,2-14.11-1.64l.12,1.2a19.82,19.82,0,0,0,7,3.47A7.46,7.46,0,0,0,87.07,189.42Z"/>
    <path class="a" d="M81.23,130.18a53.45,53.45,0,0,1,8.46-6.38c4.94-3,10.08-.54,11.07,5.1a61,61,0,0,1,.67,8.23,9.52,9.52,0,0,0,3.17,6.78c1.51,1.43,3.15,2.74,4.53,4.29,3.69,4.14,5.16,9.55.69,14.51a10.23,10.23,0,0,0-2.88,6.79,9.76,9.76,0,0,1-4.18,8.35,4.37,4.37,0,0,0-.73.86,9.7,9.7,0,0,0,5.47-6.86,28.91,28.91,0,0,1,4.84-10.79,9.69,9.69,0,0,0,1.75-7.12,16.45,16.45,0,0,0-5.17-10.64c-4.46-4.07-6.9-9-6.24-15.16a8,8,0,0,0,0-1.47c-.38-5.21-5.18-8.29-9.84-5.94-3.12,1.58-5.86,3.92-8.77,5.91-3.06,2.07-6,4.35-9.22,6.16-.18.77-.34,1.55-.47,2.33A33.1,33.1,0,0,0,81.23,130.18Z"/>
    <path class="a" d="M102.33,65.3a19,19,0,0,1,10.77,6.93c7.06,8.6,13.9,17.38,20.73,26.16,5,6.46,6.21,13.66,3.81,21.49a55.92,55.92,0,0,0-1.14,5.62c2.91-4.83,4.24-9.84,3.13-15.52-1.86-9.5-6.78-17.42-12.67-24.73-3.74-4.64-8.28-8.64-12.51-12.88-2.77-2.77-5.5-5.6-8.47-8.13a11.71,11.71,0,0,0-5-2.65c-.21,1.15-.37,2.3-.49,3.46A12.89,12.89,0,0,1,102.33,65.3Z"/>
    <path class="a" d="M2.31,156.8c0-.2,0-.07,0,0,2.84,6.82,5.56,13.7,8.58,20.44q.33.71.69,1.38,1.58-3.84,3.39-7.57C10.74,166.28,6.49,161.51,2.31,156.8Z"/>
    <path class="a" d="M119,158.69a3.17,3.17,0,0,0,.37-.78l-.48-1.3C118.9,157.3,118.94,158,119,158.69Z"/>
    <path class="a" d="M94.48,116.11c-.26-.06-.53-.11-.8-.15-.17.2-.34.41-.5.63A5.19,5.19,0,0,0,94.48,116.11Z"/>
    <path class="a" d="M106.22,126.35a25.31,25.31,0,0,0,5.7,12.5c-.84-2-1.7-4.07-2.57-6.09A60.31,60.31,0,0,0,106.22,126.35Z"/>
    <path class="a" d="M125.07,192.53l.67.3c.43-.19.89-.35,1.31-.57.77-.41,1.51-.84,2.24-1.29l-.48-2.07C127.66,190.13,126.42,191.34,125.07,192.53Z"/>
    <path class="a" d="M137.67,183.38A29.93,29.93,0,0,0,142,175c2.24-6.69,2.94-13.36.3-20.07-1.36-3.44-2.91-6.8-4.37-10.2,2.66,11.9,2.76,23.08-1.71,33.08q.66,2.44,1.28,4.91C137.56,182.93,137.61,183.15,137.67,183.38Z"/>
    <path class="a" d="M6,156.34c-.7-.92-1.51-1.76-2.26-2.63l-.53.35c1.86,2.53,3.7,5.08,5.57,7.6a86.17,86.17,0,0,0,6.85,8.16c.48-1,1-1.94,1.49-2.91A56.49,56.49,0,0,1,6,156.34Z"/>
    <path class="a" d="M103.88,85.77c5.63,2.82,9.71,7.57,13.72,12.26,4.91,5.73,9.7,11.56,11.64,19.11a5.25,5.25,0,0,0,.68,1.22l.6-.21c-.88-2.89-1.46-5.92-2.72-8.63a112.9,112.9,0,0,0-6.55-12.1c-4.75-7.68-11.34-12.94-20-15.2.16.88.34,1.76.53,2.63C102.53,85.13,103.21,85.43,103.88,85.77Z"/>
    <path class="a" d="M8.43,155a13.85,13.85,0,0,0,1.08,1.53,9.06,9.06,0,0,0,.07-1c-.32-4.26-.84-8.51-.94-12.77-.17-7,0-14.07-.11-21.1a51.17,51.17,0,0,0-.93-6.57l-.42.18c0,1.22,0,2.44,0,3.65,0,6.3-1.53,12.35-3.23,18.36a14,14,0,0,0,.73,10C5.88,149.87,7.16,152.44,8.43,155Z"/>
    <path class="a" d="M84.17,123.53c-2.64,1.07-5,2.39-7.35,3.37A29.73,29.73,0,0,0,75.29,131,42.57,42.57,0,0,0,84.17,123.53Z"/>
    <path class="a" d="M25.12,144.87a1.37,1.37,0,0,0-.23.25,1.87,1.87,0,0,0-.17.52,29.67,29.67,0,0,0-.49,8.52c.67-1.13,1.33-2.26,2-3.4C25.84,148.8,25.48,146.84,25.12,144.87Z"/>
    <path class="a" d="M105.67,190.33A34.63,34.63,0,0,0,117,182.06a47.55,47.55,0,0,0,7.06-10.2c-.33-1.05-.66-2.1-1-3.14a26.34,26.34,0,0,1-5.18,8.53C113.81,181.63,109.72,186,105.67,190.33Z"/>
    <path class="a" d="M92.13,115.84a12.55,12.55,0,0,0-2.47.25l-.29.08a12.62,12.62,0,0,0-2.89,1.45,30,30,0,0,1-5.33,2.95A19.53,19.53,0,0,0,78,124.64a54.67,54.67,0,0,0,12.8-7.7Z"/>
    <path class="a" d="M128.21,130.28c-1.12-5.15-4.51-9.07-7-13.09,2.25,6.88,5,13.95,6.84,21.25s2.8,14.88,4.24,22.82c0-3.9.55-7.55,0-11C131.27,143.52,129.64,136.91,128.21,130.28Z"/>
    <path class="a" d="M105.76,129.4a5.26,5.26,0,0,0-.55-1.06,20.75,20.75,0,0,0,4.91,12.47c2.13,2.48,4.37,5.09,5.63,8,2.42,5.67,1.27,11.36-1.36,16.81-1,2.17-1.86,4.46-2.78,6.69l.44.23a11.18,11.18,0,0,0,1.21-1.64c1.1-2.16,2.26-4.31,3.14-6.56a20.84,20.84,0,0,0,1.29-5.27c.2-1.82,0-3.68.07-5.51q-2.34-6.21-4.85-12.36C109.54,137.93,106.55,134.35,105.76,129.4Z"/>
    <path class="a" d="M93.47,191.36a44.19,44.19,0,0,0,11.07-8.31c-3.17,1.31-6.05,2.44-8.87,3.7a24.94,24.94,0,0,0-4,2.25c-3.14,2.19-5.62,5.51-10,5.43,3,.94,4.19.87,6.78-.41C90.15,193.18,91.81,192.28,93.47,191.36Z"/>
    <path class="a" d="M96,116.57a10,10,0,0,0-5.62,3.1c7.86-2.11,10.62-1,14,5.65a8.34,8.34,0,0,0,0-1.73,24.69,24.69,0,0,0-3.25-3.71A16,16,0,0,0,96,116.57Z"/>
    <path class="a" d="M32.24,125.53c.75-5.84,1.48-11.56,2.19-17.1C30.14,111,30.08,119.27,32.24,125.53Z"/>
    <path class="a" d="M82.63,191.86c-.32-.12-.6-.25-.89-.33a20.12,20.12,0,0,1-6.27-2.83c.06.61.12,1.22.19,1.84.08.06.16.14.25.2A6.57,6.57,0,0,0,82.63,191.86Z"/>
    <path class="a" d="M134.36,165.13l-.56-.15-.69,2.08c.3,1,.59,1.91.88,2.87A19.4,19.4,0,0,0,134.36,165.13Z"/>
    <path class="a" d="M5.33,152.09C3,146.77.62,141.69,2.51,135.87-1.75,139.92-.44,147.41,5.33,152.09Z"/>
    <path class="a" d="M109.08,196.74c-7.22,2.53-14.34,5.88-22.6,2.25,2.81,2.75,6,3.6,9,2.79,1.77-.47,3.55-.9,5.34-1.23A17,17,0,0,0,109.08,196.74Z"/>
    <path class="a" d="M89.17,202.91l-13.25-9.79.15,1.5C79.31,199,84.3,200.92,89.17,202.91Z"/>
    <path class="a" d="M110,173c1.5-3.53,2.82-7.14,4.37-10.65a16.13,16.13,0,0,0,1.27-8.93c.45,4.1-1.19,7.49-3.43,10.72a16,16,0,0,0-2,3.9c-1,2.91-1.8,5.88-2.68,8.82l.34.22C108.54,175.72,109.35,174.4,110,173Z"/>
    <path class="a" d="M33.62,136.34c-.07.32-.12.64-.17,1,.07-.17.15-.33.23-.5Z"/>
    <path class="a" d="M107.38,191.94c7.67-2.05,14-9.86,17.31-18.08,0-.09,0-.18-.08-.27C120.72,181.36,115.26,187.72,107.38,191.94Z"/>
    <path class="a" d="M28,142.44a27.57,27.57,0,0,0-.74,6.49c.25-.42.48-.85.72-1.27A37.91,37.91,0,0,1,28,142.44Z"/>
    <path class="a" d="M112.34,200.47l-16.45,3.68C101.93,205.24,107.3,203.22,112.34,200.47Z"/>
    <path class="a" d="M126.84,181.23c-.1-.33-.19-.67-.28-1L120,191.3A24.12,24.12,0,0,0,126.84,181.23Z"/>
    <path class="a" d="M101.39,197.79l0-.55-11,.92A18.55,18.55,0,0,0,101.39,197.79Z"/>
    <path class="a" d="M20.33,133l-5.64-6.57C15.77,129.91,17.74,132.22,20.33,133Z"/>
    <path class="a" d="M76.35,197.44l.06.57.25-.36Z"/>
    <path class="a" d="M136.11,147.61c.39,2.55.77,5.1,1.16,7.65l.46-.08c-.41-2.54-.83-5.08-1.24-7.62Z"/>
    <path class="a" d="M107.27,194.76l.24.53,4.84-2.09-.28-.6Z"/>
</svg>